<?xml version="1.0" standalone="no"?>
<!DOCTYPE svg PUBLIC "-//W3C//DTD SVG 20010904//EN"
 "http://www.w3.org/TR/2001/REC-SVG-20010904/DTD/svg10.dtd">
<svg version="1.0" xmlns="http://www.w3.org/2000/svg"
 width="1024.000000pt" height="1024.000000pt" viewBox="0 0 1024.000000 1024.000000"
 preserveAspectRatio="xMidYMid meet">

<g transform="translate(0.000000,1024.000000) scale(0.100000,-0.100000)"
fill="#000000" stroke="none">
<path d="M4744 8189 c-609 -37 -1318 -165 -1869 -338 -310 -97 -666 -237 -941
-371 l-162 -79 5 -48 c3 -26 29 -194 60 -373 64 -385 68 -414 47 -335 -9 33
-21 62 -25 63 -5 2 -7 7 -4 11 2 5 -7 6 -21 3 -16 -3 -30 1 -35 9 -13 20 -11
-2 5 -78 7 -35 10 -63 6 -63 -16 0 -109 523 -131 740 -11 115 -13 120 -33 114
-38 -11 -67 -34 -77 -62 -18 -46 23 -391 82 -699 l22 -113 426 -2 426 -3 30
-47 c16 -27 64 -111 105 -188 71 -134 90 -159 90 -124 0 9 13 59 29 112 16 54
39 132 52 175 l22 77 1791 -1 c985 -1 1783 -3 1773 -6 -23 -6 -52 -60 -34 -66
46 -16 -345 -19 -1820 -13 -1512 5 -1673 5 -1687 -10 -9 -8 -16 -21 -16 -28 0
-7 -25 -90 -56 -185 l-55 -173 -22 30 c-12 16 -65 104 -117 195 l-95 167 -504
-3 -504 -2 -8 -25 c-4 -14 -49 -167 -99 -340 -87 -301 -203 -687 -421 -1403
-55 -181 -103 -335 -106 -342 -4 -12 0 -13 23 -5 56 18 837 136 1034 156 85 9
108 18 112 46 4 28 50 40 248 62 197 23 197 23 217 -19 20 -42 9 -41 248 -20
94 8 190 14 215 14 41 -1 42 -2 15 -9 -16 -4 -24 -8 -16 -9 11 -1 11 -4 2 -15
-11 -12 -6 -15 31 -18 53 -4 -88 -19 -490 -53 -554 -47 -1009 -113 -1644 -238
-126 -24 -160 -38 -82 -33 27 2 41 2 32 -1 -22 -5 -22 -12 -3 -37 25 -34 16
-36 -17 -5 -37 33 -61 40 -33 9 10 -11 21 -20 24 -20 3 0 42 -35 87 -78 120
-117 351 -309 398 -332 51 -24 104 -25 175 -4 29 8 54 14 55 12 1 -2 12 -28
23 -59 42 -112 126 -310 130 -306 2 2 -6 25 -17 51 -25 58 -26 80 -2 46 13
-19 27 -25 56 -26 37 -2 38 -1 32 29 -3 17 -4 29 -2 26 6 -6 126 -288 126
-297 0 -4 7 -16 16 -27 11 -15 31 -22 77 -26 l62 -6 -54 -1 c-42 -2 -52 -5
-47 -17 3 -8 -1 -21 -9 -29 -11 -11 -12 -16 -2 -20 11 -6 -20 -1 -68 9 -11 3
-4 -3 15 -12 54 -26 152 -27 306 -5 250 37 224 37 290 -1 160 -92 2121 -1083
2129 -1075 2 2 -304 157 -679 345 -375 189 -691 350 -701 358 -11 9 22 -5 73
-30 50 -25 93 -42 93 -38 1 5 3 17 4 28 5 47 17 67 37 62 16 -5 17 -3 6 11
-10 13 -10 14 0 8 7 -4 19 -3 27 4 10 8 35 1 111 -35 53 -25 98 -44 100 -42 1
1 -209 110 -467 242 -258 131 -469 242 -469 245 0 3 17 6 38 6 20 1 28 -1 18
-4 -13 -3 14 -22 90 -63 60 -33 117 -57 127 -55 9 2 15 1 13 -3 -3 -4 47 -33
110 -64 63 -31 114 -55 114 -52 0 3 -48 29 -107 59 -60 30 -97 53 -83 52 14
-1 31 -5 37 -9 6 -4 14 -1 16 5 3 8 6 6 6 -4 1 -10 5 -18 10 -18 5 0 7 9 4 20
-6 24 12 26 53 8 l27 -13 -24 -6 c-19 -6 -15 -7 18 -8 23 -1 50 -4 60 -8 10
-3 -59 34 -154 83 -95 48 -171 90 -169 91 3 3 126 -56 681 -326 464 -227 1525
-755 1522 -758 -2 -2 -69 28 -150 67 -146 70 -171 80 -149 58 8 -8 8 -17 0
-31 -7 -15 -7 -22 3 -28 28 -17 -1 -8 -67 21 -132 59 -69 23 157 -91 l230
-116 229 113 c127 62 230 115 230 118 0 3 -21 -4 -46 -15 -26 -11 -48 -18 -49
-17 -10 12 -29 54 -27 60 3 10 -18 2 -137 -54 -57 -26 -106 -47 -108 -45 -1 2
108 58 244 125 623 304 1773 871 1846 909 4 2 7 2 7 -1 0 -2 -81 -46 -180 -97
-99 -51 -178 -95 -176 -97 2 -2 19 4 36 13 26 14 34 14 41 4 4 -7 6 -16 3 -20
-2 -4 10 -4 28 1 17 6 33 8 35 6 2 -1 -42 -27 -96 -57 -167 -90 -105 -66 100
39 107 55 232 119 279 142 70 35 81 44 65 50 -14 6 -9 8 17 7 21 -1 38 -5 38
-8 0 -3 -111 -63 -247 -134 -137 -70 -304 -159 -373 -195 -69 -37 -234 -122
-367 -190 -134 -67 -243 -123 -243 -125 0 -3 53 21 118 52 186 88 219 102 226
96 3 -4 13 2 22 13 14 18 15 18 4 -4 -6 -12 -16 -22 -21 -22 -6 0 -8 -7 -5
-16 3 -8 -1 -22 -9 -31 -11 -11 -13 -19 -5 -27 5 -7 7 -15 5 -18 -3 -3 -8 -15
-10 -27 -2 -12 -14 -31 -27 -42 -16 -13 1 -9 55 15 43 20 75 31 72 26 -14 -22
26 -6 189 79 94 49 243 126 331 171 262 135 557 292 597 316 33 21 41 22 98
13 209 -33 417 -49 406 -30 -3 4 7 6 22 4 22 -4 24 -2 12 7 -12 9 -11 10 6 5
25 -7 56 3 48 16 -3 5 -14 9 -26 9 -11 0 -22 8 -25 20 -5 17 -14 20 -67 21
l-61 2 63 7 c34 4 64 9 66 11 1 2 22 55 46 117 45 117 65 149 30 47 -24 -70
-25 -87 -4 -57 8 12 22 22 30 22 8 0 14 5 14 11 0 5 5 7 10 4 6 -3 10 0 10 7
0 10 2 10 9 -1 7 -11 11 -10 20 5 22 38 10 -6 -19 -72 -17 -37 -29 -68 -27
-70 2 -2 45 90 97 204 115 256 255 537 349 702 68 120 85 170 58 170 -7 0 -35
21 -62 46 l-50 46 53 -42 c29 -24 56 -39 60 -36 3 4 1 11 -6 15 -7 4 -10 16
-6 27 4 14 3 15 -4 5 -7 -10 -12 -5 -21 21 -8 23 -21 37 -40 45 -34 12 -41 9
-41 -21 0 -19 0 -19 -14 -1 -13 18 -14 17 -29 -6 -82 -130 -248 -442 -312
-589 -43 -98 -184 -457 -200 -508 -6 -20 -12 -23 -38 -18 -63 11 -557 66 -822
90 -349 33 -940 72 -1320 88 -451 19 -1815 16 -2280 -5 -655 -29 -1237 -77
-1744 -142 -107 -14 -198 -22 -203 -17 -4 4 -44 102 -87 218 -44 115 -95 250
-114 299 -43 111 -168 397 -213 488 -19 37 -31 67 -26 67 4 0 35 -55 70 -122
53 -106 67 -123 44 -58 -3 8 -2 12 2 8 4 -3 20 -3 36 2 18 5 32 4 40 -3 6 -7
2 13 -10 43 -32 80 -34 90 -9 45 53 -96 114 -250 321 -819 l21 -58 56 6 c1212
132 2461 188 3571 160 926 -23 1532 -61 2315 -145 154 -16 285 -32 291 -34 7
-2 25 32 42 78 148 392 207 536 283 690 91 180 126 237 63 103 -19 -41 -34
-77 -34 -80 0 -3 12 -6 26 -6 33 0 56 -23 47 -47 -3 -10 -4 -16 -1 -13 8 7
168 289 168 295 0 3 -22 5 -48 5 -27 0 -73 4 -103 10 -65 12 -635 75 -804 90
-303 26 -471 39 -610 50 -376 29 -373 29 -185 25 103 -3 167 -1 155 4 -17 7
-15 9 15 13 28 3 19 6 -40 14 l-75 11 55 1 c104 2 1010 -58 1254 -84 81 -8
150 -14 151 -12 1 2 -1 37 -6 78 -14 125 -38 580 -45 848 l-7 252 281 0 281 0
26 58 c15 31 65 143 112 247 46 105 98 219 115 255 17 36 45 100 64 143 l33
77 -822 1 c-563 0 -813 4 -794 11 15 5 27 14 27 19 0 6 -5 7 -10 4 -6 -3 -17
0 -25 9 -14 13 -13 16 7 30 19 14 75 16 414 16 l392 0 21 138 c51 333 80 640
63 677 -13 29 -57 59 -75 52 -9 -3 -18 -43 -26 -118 -25 -228 -105 -705 -121
-722 -4 -5 -3 17 2 49 11 72 9 77 -24 59 -19 -9 -28 -10 -28 -3 0 24 -13 -4
-26 -54 -24 -102 -14 -1 25 237 41 252 77 523 70 528 -19 14 -338 160 -469
215 -555 234 -1155 402 -1740 486 -253 37 -510 64 -710 76 -200 11 -642 11
-836 -1z m553 -46 c-14 -4 -18 -12 -14 -29 4 -24 4 -24 -81 -24 -169 0 -71 -9
218 -20 459 -17 721 -46 1121 -125 454 -90 934 -226 1249 -352 201 -81 317
-133 445 -199 l140 -72 -3 -38 c-5 -59 -49 -364 -74 -506 l-21 -128 -38 0
c-70 0 -69 -2 -69 140 l0 128 -31 6 c-17 3 -35 3 -40 0 -5 -3 -9 0 -9 7 0 7
-3 9 -7 5 -5 -4 -10 -55 -13 -112 -3 -57 -9 -105 -15 -107 -5 -1 -11 11 -13
26 -2 20 -8 27 -18 23 -12 -5 -14 31 -14 234 l0 239 -39 12 c-22 7 -44 21 -51
35 -17 32 -67 42 -85 17 -8 -10 -15 -26 -15 -36 0 -15 -7 -18 -42 -15 l-43 3
-3 -197 c-1 -109 -4 -198 -7 -198 -2 0 -15 5 -29 11 -24 11 -25 17 -28 97 l-3
85 -33 1 c-17 1 -32 -3 -32 -7 0 -5 -4 -5 -10 -2 -5 3 -10 24 -10 46 0 38 -17
69 -38 69 -5 0 -15 7 -22 15 -13 16 -50 21 -50 7 0 -4 6 -14 13 -21 10 -10 9
-11 -5 -6 -13 5 -18 2 -18 -9 0 -13 -11 -16 -49 -16 -55 0 -58 -3 -63 -78 -1
-29 2 -46 12 -52 18 -11 5 -12 -39 -4 -27 6 -32 11 -29 32 3 23 -2 27 -36 34
-45 10 -66 23 -23 16 15 -3 27 -1 27 3 0 5 -13 9 -30 9 -25 0 -30 -4 -30 -25
0 -23 -16 -31 -60 -27 -3 0 -55 3 -115 7 -61 4 -116 8 -122 10 -9 3 -13 25
-13 66 l0 61 -55 -4 c-51 -3 -55 -1 -55 18 0 17 -7 23 -34 26 -44 5 -56 0 -56
-22 0 -17 -2 -18 -27 -4 -57 29 -63 23 -63 -71 0 -84 0 -85 -25 -85 l-24 0 -3
152 -3 152 -50 15 c-27 9 -52 19 -53 24 -6 12 -65 34 -88 32 -12 0 -29 -8 -37
-17 -9 -8 -34 -18 -56 -22 l-41 -6 0 -75 0 -75 -40 6 -40 7 -1 -114 c-1 -63
-1 -120 0 -126 1 -7 -2 -13 -8 -13 -5 0 -16 -3 -25 -6 -14 -6 -16 35 -16 419
l0 425 -94 17 c-52 9 -126 25 -165 34 l-71 18 -33 -24 c-17 -13 -50 -32 -72
-42 -22 -10 -46 -24 -52 -33 -10 -11 -13 -127 -13 -481 l-1 -467 -36 -15 c-19
-8 -38 -15 -42 -15 -8 0 -8 20 -10 413 -1 299 -2 307 -21 307 -18 0 -19 6 -17
65 2 58 1 64 -18 67 -11 2 -21 11 -23 20 -2 10 -17 32 -34 48 -26 26 -30 36
-25 65 3 19 2 35 -4 35 -5 0 -9 -18 -9 -40 0 -47 -26 -108 -57 -133 -13 -10
-23 -25 -23 -32 0 -8 -7 -18 -15 -23 -14 -7 -15 -62 -13 -445 2 -240 2 -437 1
-437 -1 0 -8 -3 -17 -6 -14 -5 -16 16 -16 194 0 110 -3 207 -6 216 -3 9 -17
16 -30 16 -24 0 -24 1 -24 99 l0 98 -45 6 c-24 4 -58 4 -75 1 -27 -6 -30 -11
-31 -45 -1 -22 -2 -45 -3 -51 0 -7 -14 -13 -31 -14 -16 0 -38 -4 -47 -8 -17
-8 -18 1 -18 102 0 116 -3 122 -50 122 -10 0 -32 14 -49 31 -17 17 -31 26 -31
21 0 -6 -17 -6 -42 -2 -24 5 -45 5 -48 1 -3 -5 -17 -11 -32 -14 -15 -4 -29
-15 -33 -25 -3 -11 -22 -24 -45 -31 l-40 -12 0 -384 c0 -262 -3 -385 -10 -385
-7 0 -10 52 -8 155 2 97 -1 156 -7 158 -5 2 -25 -1 -42 -6 -36 -11 -35 -10
-34 -112 1 -33 -3 -76 -8 -95 -9 -35 -9 -35 -10 14 -1 46 -2 48 -16 30 -13
-17 -14 -2 -15 137 0 166 -1 171 -51 182 -44 11 -71 -22 -71 -83 0 -49 -1 -51
-27 -48 -14 2 -27 -1 -28 -7 -2 -5 2 -10 8 -10 11 0 15 -88 11 -238 -2 -75 -3
-78 -24 -75 -18 2 -23 10 -25 33 0 17 -2 38 -2 48 -1 15 -13 17 -103 18 -80 0
-97 3 -78 10 14 6 60 9 102 7 l77 -3 3 128 c2 71 -1 135 -5 143 -4 8 -17 14
-27 14 -11 0 -20 4 -20 9 0 8 -23 18 -62 27 -10 2 -18 -1 -18 -8 0 -21 -33
-48 -59 -48 -48 0 -50 -7 -52 -156 l-2 -141 -66 -7 c-36 -3 -67 -10 -69 -16
-7 -19 -20 -10 -27 17 -5 21 -8 24 -15 13 -7 -12 -10 -12 -16 3 -3 9 -4 27 -1
40 5 17 0 26 -24 40 -37 21 -58 22 -65 3 -3 -8 -12 -12 -20 -9 -8 3 -14 -1
-14 -11 0 -10 -9 -16 -24 -16 -13 0 -26 -5 -28 -11 -2 -7 -19 -13 -38 -14 -19
-2 -48 -8 -63 -14 -16 -6 -32 -9 -37 -6 -5 3 -11 -5 -13 -17 -6 -30 -9 63 -7
182 1 70 6 100 17 113 23 24 33 21 44 -13 6 -16 15 -27 20 -24 5 3 9 0 9 -5 0
-6 6 -11 14 -11 16 0 25 74 15 114 -5 18 -3 23 7 19 7 -3 16 -13 19 -24 4 -10
10 -19 16 -19 5 0 21 -18 35 -40 32 -48 44 -51 44 -10 0 39 -29 94 -73 142
-33 35 -33 37 -13 42 37 10 71 6 94 -10 13 -9 26 -13 29 -10 10 10 -57 74 -91
86 -17 6 -39 16 -48 21 -13 6 -18 5 -18 -3 0 -10 -3 -9 -9 1 -7 10 3 20 37 37
25 13 49 21 54 18 14 -9 9 13 -6 25 -15 12 -156 12 -156 -1 0 -4 -10 -10 -22
-14 -13 -3 -30 -13 -39 -21 -14 -12 -17 -12 -23 2 -3 9 -10 14 -15 11 -5 -3
-11 4 -14 15 -4 15 -11 20 -22 15 -9 -3 -13 -2 -10 4 4 6 -10 10 -33 10 -26 0
-42 -5 -46 -15 -3 -8 -9 -15 -13 -14 -21 3 -51 -14 -46 -27 4 -11 18 -13 57
-8 35 4 57 1 69 -8 15 -11 11 -13 -36 -13 -41 0 -58 -5 -77 -23 -51 -48 -64
-48 -90 2 -8 15 -34 41 -57 57 -56 39 -63 53 -16 35 21 -8 51 -17 66 -21 24
-5 28 -3 25 12 -4 25 -84 63 -130 63 -21 0 -38 3 -38 8 1 13 30 46 30 34 0 -7
9 -3 20 8 11 11 25 20 30 20 20 0 9 15 -23 31 -22 11 -40 13 -55 8 -18 -7 -22
-5 -22 11 0 25 -22 26 -58 3 -35 -22 -42 -33 -42 -62 0 -18 -4 -22 -17 -16
-10 4 -31 8 -46 10 -16 1 -32 6 -35 12 -11 17 -45 30 -92 36 l-45 7 30 -15
c27 -14 28 -15 5 -11 -14 3 -41 1 -60 -4 l-35 -8 30 -2 c18 -1 23 -4 13 -7
-39 -10 -5 -33 50 -33 13 0 33 -5 44 -11 19 -10 16 -13 -33 -30 -125 -44 -147
-62 -176 -146 -10 -26 -9 -32 4 -38 16 -5 27 2 107 75 31 28 36 30 26 12 -17
-34 -6 -38 18 -7 12 15 23 21 27 15 3 -5 3 -10 -2 -10 -29 -1 -105 -206 -82
-221 6 -3 11 -10 11 -15 0 -5 3 -15 8 -23 5 -10 10 -4 15 20 11 56 16 69 26
69 5 0 27 11 49 25 l39 25 -9 -26 c-14 -36 -12 -76 5 -98 11 -15 15 -16 19 -5
2 8 9 34 16 59 13 47 43 94 54 83 3 -3 7 5 7 18 1 16 4 11 10 -16 23 -102 21
-584 -2 -569 -5 3 -7 10 -4 15 4 5 -10 9 -29 9 -23 0 -35 -4 -34 -12 2 -7 -8
-14 -22 -16 -14 -2 -20 1 -14 5 15 11 16 75 1 70 -6 -2 -11 -17 -12 -33 0 -21
-4 -28 -17 -26 -22 3 -32 -14 -13 -22 8 -3 15 -12 15 -21 0 -19 -16 -20 -24 0
-3 8 -18 15 -33 16 -29 0 -78 17 -55 18 6 1 12 8 12 16 0 19 10 19 36 1 23
-16 36 -11 52 21 15 26 6 54 -14 46 -10 -4 -17 2 -21 16 -4 15 -13 21 -34 21
-16 0 -29 -5 -29 -11 0 -6 9 -9 20 -6 11 3 23 1 26 -4 3 -5 -4 -9 -15 -9 -11
0 -23 -4 -26 -10 -12 -20 -24 -10 -19 17 4 23 3 25 -11 13 -18 -15 -20 -76 -3
-86 8 -5 9 0 6 14 -4 12 -3 22 2 22 10 0 20 -37 12 -44 -3 -3 -16 -6 -29 -6
-12 0 -23 -4 -23 -10 0 -5 -5 -10 -11 -10 -5 0 -7 5 -4 10 3 6 0 10 -7 11 -80
6 -96 5 -124 -12 -34 -20 -74 -25 -74 -9 0 6 -7 10 -16 10 -8 0 -12 -4 -9 -10
3 -5 1 -10 -4 -10 -6 0 -11 5 -11 11 0 11 -181 6 -200 -6 -5 -3 -12 4 -15 17
-27 118 -40 188 -75 399 -22 134 -40 254 -40 265 0 18 30 35 182 107 387 181
777 319 1206 426 517 129 1171 221 1655 233 102 2 118 18 20 19 -38 0 -63 3
-57 5 17 7 5 42 -15 47 -9 3 83 5 204 5 121 0 212 -2 202 -5z m413 -412 c0
-10 -58 -36 -66 -29 -2 3 10 13 28 21 39 20 38 19 38 8z m-60 -61 c0 -5 -5
-10 -11 -10 -5 0 -7 5 -4 10 3 6 8 10 11 10 2 0 4 -4 4 -10z m62 -22 c-5 -5
-16 -11 -23 -12 -8 -2 -22 -6 -32 -11 -29 -12 -32 3 -3 16 14 7 26 16 26 20 0
11 34 16 39 6 2 -5 -1 -13 -7 -19z m108 17 c0 -8 -4 -15 -10 -15 -5 0 -10 7
-10 15 0 8 5 15 10 15 6 0 10 -7 10 -15z m130 -5 c0 -5 -9 -10 -19 -10 -11 0
-23 5 -26 10 -4 6 5 10 19 10 14 0 26 -4 26 -10z m70 6 c0 -9 -30 -14 -35 -6
-4 6 3 10 14 10 12 0 21 -2 21 -4z m-295 -58 c-9 -22 -65 -52 -77 -40 -7 7 -6
10 3 9 8 -1 15 2 16 7 2 9 55 47 60 42 2 -2 1 -10 -2 -18z m295 11 c0 -5 -4
-8 -9 -5 -5 4 -12 0 -14 -6 -3 -8 -6 -6 -6 5 -1 9 6 17 14 17 8 0 15 -5 15
-11z m-200 -19 c0 -5 -4 -10 -10 -10 -5 0 -10 5 -10 10 0 6 5 10 10 10 6 0 10
-4 10 -10z m-460 -10 c0 -5 -4 -10 -10 -10 -5 0 -10 5 -10 10 0 6 5 10 10 10
6 0 10 -4 10 -10z m585 0 c3 -5 -1 -10 -9 -10 -9 0 -16 5 -16 10 0 6 4 10 9
10 6 0 13 -4 16 -10z m-225 -35 c0 -8 -9 -15 -21 -15 -11 0 -18 -4 -15 -9 5
-7 -34 -31 -50 -31 -22 0 51 60 84 69 1 1 2 -6 2 -14z m100 5 c0 -5 -4 -10
-10 -10 -5 0 -10 5 -10 10 0 6 5 10 10 10 6 0 10 -4 10 -10z m-544 -70 c8 0
14 -7 14 -15 0 -8 -6 -12 -14 -9 -12 5 -16 -7 -19 -53 -2 -43 -3 -36 -4 27 0
47 1 77 4 68 2 -10 11 -18 19 -18z m14 20 c0 -5 -4 -10 -10 -10 -5 0 -10 5
-10 10 0 6 5 10 10 10 6 0 10 -4 10 -10z m430 -5 c0 -8 -9 -15 -19 -15 -11 0
-23 -4 -26 -10 -7 -12 -25 -13 -25 -2 0 5 15 15 33 24 17 8 33 16 35 17 1 0 2
-6 2 -14z m-3105 -25 c3 -5 1 -10 -4 -10 -6 0 -11 5 -11 10 0 6 2 10 4 10 3 0
8 -4 11 -10z m2765 -2 c0 -4 -18 -8 -41 -8 -22 0 -38 3 -36 8 7 10 77 10 77 0z
m40 2 c0 -5 -5 -10 -11 -10 -5 0 -7 5 -4 10 3 6 8 10 11 10 2 0 4 -4 4 -10z
m-133 -52 c-3 -8 -6 -5 -6 6 -1 11 2 17 5 13 3 -3 4 -12 1 -19z m138 12 c-8
-13 -85 -13 -105 0 -11 7 4 10 48 10 40 0 61 -4 57 -10z m580 0 c3 -5 -1 -10
-10 -10 -9 0 -13 5 -10 10 3 6 8 10 10 10 2 0 7 -4 10 -10z m2661 -37 c-7 -7
-26 7 -26 19 0 6 6 6 15 -2 9 -7 13 -15 11 -17z m-2946 -22 c0 -15 -11 -22
-47 -29 -26 -6 -49 -9 -51 -7 -4 4 80 55 91 55 4 0 7 -9 7 -19z m-253 -53 c-2
-13 -4 -3 -4 22 0 25 2 35 4 23 2 -13 2 -33 0 -45z m-2802 -8 c-10 -11 -21
-17 -24 -14 -3 3 3 12 13 20 28 20 32 17 11 -6z m2621 13 c-10 -11 -36 -12
-36 -2 0 5 10 9 22 9 12 0 18 -3 14 -7z m119 -3 c24 -6 17 -8 -32 -9 -36 0
-63 3 -63 9 0 11 50 11 95 0z m285 -13 c0 -11 -58 -47 -75 -47 -18 0 1 23 33
39 45 24 42 24 42 8z m-400 -17 c0 -5 -5 -10 -11 -10 -5 0 -7 5 -4 10 3 6 8
10 11 10 2 0 4 -4 4 -10z m134 -26 c-5 -19 -4 -25 5 -20 6 4 11 2 11 -3 0 -6
-4 -11 -10 -11 -6 0 -10 -41 -10 -104 0 -82 3 -106 16 -117 14 -11 15 -3 14
82 -1 112 4 186 13 196 4 3 7 -80 7 -185 0 -116 -4 -193 -10 -197 -6 -4 -10
13 -11 42 -1 40 -2 43 -8 18 -8 -40 -44 -49 -39 -9 3 25 0 27 -34 28 -21 1
-38 -3 -39 -9 -1 -5 13 -9 30 -7 17 2 31 -1 31 -7 0 -11 -13 -15 -39 -12 -7 2
-10 -2 -6 -8 3 -6 -1 -11 -9 -11 -9 0 -16 5 -16 11 0 8 -5 7 -16 -2 -23 -19
-44 -20 -44 -3 0 9 4 13 8 10 15 -9 33 11 38 40 6 39 4 165 -2 176 -3 4 -17 8
-32 9 -24 0 -25 1 -7 8 11 5 23 7 26 5 4 -2 20 3 35 11 l29 15 -37 0 c-21 0
-38 5 -38 10 0 11 33 13 67 4 12 -3 24 -17 28 -31 3 -13 11 -23 18 -20 14 4
18 46 6 67 -7 12 -8 12 -9 1 0 -8 -2 -12 -5 -9 -13 13 8 58 26 58 16 0 18 -5
13 -26z m391 16 c3 -5 1 -10 -4 -10 -6 0 -11 5 -11 10 0 6 2 10 4 10 3 0 8 -4
11 -10z m110 -28 c-8 -8 -25 10 -19 20 4 6 9 5 15 -3 4 -7 6 -15 4 -17z m95
20 c0 -14 -11 -21 -26 -15 -8 3 -11 9 -8 14 7 11 34 12 34 1z m-1203 -34 c-3
-8 -6 -5 -6 6 -1 11 2 17 5 13 3 -3 4 -12 1 -19z m490 6 c-3 -3 -12 -4 -19 -1
-8 3 -5 6 6 6 11 1 17 -2 13 -5z m-207 -14 c0 -5 -5 -10 -11 -10 -5 0 -7 5 -4
10 3 6 8 10 11 10 2 0 4 -4 4 -10z m1195 -10 c-3 -5 -12 -7 -20 -3 -21 7 -19
13 6 13 11 0 18 -4 14 -10z m-3391 -75 c8 -16 23 -40 34 -53 l20 -23 21 29
c20 29 20 30 2 66 -19 37 -10 52 9 16 6 -11 23 -23 38 -26 15 -4 37 -16 50
-27 l23 -21 25 27 c14 15 31 27 39 27 7 0 15 5 17 12 3 7 9 8 18 3 11 -7 11
-10 -1 -19 -17 -13 -35 -64 -44 -124 -7 -42 -7 -42 17 -31 14 6 32 24 42 40
16 26 45 40 47 22 3 -38 9 -65 18 -80 9 -17 10 -17 16 0 4 9 13 17 21 17 8 0
14 7 14 15 0 8 5 15 11 15 12 0 6 -189 -9 -323 l-7 -59 -48 -3 c-38 -2 -47 0
-43 11 7 19 -4 45 -16 38 -5 -3 -7 -18 -3 -31 5 -21 3 -24 -10 -19 -9 3 -38 6
-63 7 -26 0 -41 3 -34 6 17 7 15 53 -2 53 -8 0 -17 6 -19 13 -3 6 -6 -7 -6
-30 -1 -34 -5 -43 -18 -42 -11 0 -13 3 -5 6 6 2 12 16 12 30 0 18 -4 24 -14
20 -10 -4 -13 -1 -9 9 3 9 0 14 -8 12 -8 -2 -16 10 -20 32 l-6 35 -2 -38 c-1
-45 -21 -41 -21 4 0 40 -20 37 -21 -3 0 -31 -1 -32 -11 -10 -6 12 -17 22 -25
22 -7 0 -14 -10 -15 -22 0 -13 -4 0 -8 27 -6 43 -7 36 -10 -50 l-3 -100 -7 70
c-4 39 -8 147 -9 242 0 102 -5 174 -11 178 -5 3 -10 30 -10 58 0 50 1 51 15
27 8 -14 21 -38 29 -55z m126 60 c7 -8 9 -15 6 -15 -4 0 -14 7 -22 15 -9 8
-11 15 -6 15 5 0 15 -7 22 -15z m1800 -5 c0 -5 -4 -10 -10 -10 -5 0 -10 5 -10
10 0 6 5 10 10 10 6 0 10 -4 10 -10z m-140 -4 c0 -3 -4 -8 -10 -11 -5 -3 -10
-1 -10 4 0 6 5 11 10 11 6 0 10 -2 10 -4z m1125 -6 c3 -5 1 -10 -4 -10 -6 0
-11 5 -11 10 0 6 2 10 4 10 3 0 8 -4 11 -10z m205 -9 c0 -6 -4 -13 -10 -16 -5
-3 -10 1 -10 9 0 9 5 16 10 16 6 0 10 -4 10 -9z m-1080 -41 c0 -20 -5 -30 -15
-30 -15 0 -21 40 -8 53 14 15 23 6 23 -23z m780 10 c0 -15 -7 -20 -24 -20 -14
0 -36 -4 -50 -10 -44 -16 -30 9 17 30 53 25 57 24 57 0z m1047 -37 c-3 -10 -5
-4 -5 12 0 17 2 24 5 18 2 -7 2 -21 0 -30z m-2077 17 c0 -5 -2 -10 -4 -10 -3
0 -8 5 -11 10 -3 6 -1 10 4 10 6 0 11 -4 11 -10z m1330 -10 c0 -5 -4 -10 -10
-10 -5 0 -10 5 -10 10 0 6 5 10 10 10 6 0 10 -4 10 -10z m380 -10 c0 -5 -4
-10 -10 -10 -5 0 -10 5 -10 10 0 6 5 10 10 10 6 0 10 -4 10 -10z m-680 -15 c0
-8 -6 -15 -12 -15 -7 0 -25 -7 -40 -14 -34 -18 -37 -2 -5 25 27 22 57 25 57 4z
m490 0 c0 -8 -4 -15 -10 -15 -5 0 -7 7 -4 15 4 8 8 15 10 15 2 0 4 -7 4 -15z
m-190 -11 c0 -8 -5 -12 -10 -9 -6 4 -8 11 -5 16 9 14 15 11 15 -7z m1813 9
c-7 -2 -21 -2 -30 0 -10 3 -4 5 12 5 17 0 24 -2 18 -5z m50 0 c-7 -2 -19 -2
-25 0 -7 3 -2 5 12 5 14 0 19 -2 13 -5z m-463 -29 c0 -8 -5 -12 -10 -9 -6 4
-8 11 -5 16 9 14 15 11 15 -7z m-973 0 c-3 -3 -12 -4 -19 -1 -8 3 -5 6 6 6 11
1 17 -2 13 -5z m-727 -23 c0 -12 -9 -20 -27 -24 -16 -3 -36 -9 -45 -12 -13 -5
-15 -2 -11 13 2 11 19 24 36 30 45 14 47 14 47 -7z m487 -18 c-3 -10 -5 -4 -5
12 0 17 2 24 5 18 2 -7 2 -21 0 -30z m1633 27 c0 -5 -4 -10 -10 -10 -5 0 -10
5 -10 10 0 6 5 10 10 10 6 0 10 -4 10 -10z m80 6 c0 -3 -4 -8 -10 -11 -5 -3
-10 -1 -10 4 0 6 5 11 10 11 6 0 10 -2 10 -4z m-3810 -27 c0 -14 -17 -10 -23
5 -4 10 -1 13 9 9 7 -3 14 -9 14 -14z m3767 15 c-3 -3 -12 -4 -19 -1 -8 3 -5
6 6 6 11 1 17 -2 13 -5z m-3829 -41 c1 -26 1 -27 -13 -9 -8 10 -12 23 -9 27
10 17 20 9 22 -18z m109 11 c-3 -3 -12 -4 -19 -1 -8 3 -5 6 6 6 11 1 17 -2 13
-5z m-147 -14 c0 -5 -12 -10 -27 -9 l-28 1 25 8 c14 4 26 8 28 9 1 1 2 -3 2
-9z m107 -12 c-3 -8 -6 -5 -6 6 -1 11 2 17 5 13 3 -3 4 -12 1 -19z m2168 12
c-16 -4 -39 -8 -50 -8 -16 0 -15 2 5 8 14 4 36 8 50 8 22 0 22 -1 -5 -8z m992
4 c-3 -3 -12 -4 -19 -1 -8 3 -5 6 6 6 11 1 17 -2 13 -5z m-1557 -22 c0 -15 -6
-18 -29 -14 -16 2 -32 -1 -35 -7 -11 -17 -26 -13 -20 4 4 8 20 19 38 24 45 13
46 13 46 -7z m1405 -8 c249 -38 481 -114 698 -230 l58 -31 -68 -11 c-37 -6
-119 -17 -182 -24 -62 -6 -118 -17 -125 -23 -87 -83 -317 -264 -496 -390 -69
-48 -190 -134 -270 -190 -247 -175 -684 -447 -945 -589 -181 -100 -606 -309
-667 -330 -26 -8 -78 -30 -115 -47 -38 -17 -99 -43 -138 -59 -38 -15 -108 -47
-155 -69 -123 -61 -278 -122 -415 -166 -66 -21 -124 -42 -130 -45 -5 -4 -28
-10 -50 -13 -35 -5 -28 0 50 39 107 53 98 51 -55 -11 -319 -131 -674 -253
-860 -295 -69 -15 -126 -27 -128 -25 -2 2 34 15 80 30 46 15 103 36 128 46 25
10 119 45 210 78 381 137 647 251 1050 452 260 129 539 277 567 301 8 6 16 8
20 5 3 -4 40 12 82 35 84 46 351 217 351 225 0 3 -10 -1 -22 -9 -13 -8 -59
-36 -103 -63 -44 -27 -100 -63 -125 -80 -64 -44 -184 -110 -176 -96 4 6 22 18
39 27 18 9 70 42 118 74 47 32 95 61 107 64 13 4 35 19 50 33 15 14 61 48 102
76 120 81 441 325 492 374 26 26 51 42 57 38 6 -3 10 -2 9 3 -2 6 48 60 110
120 61 61 112 108 112 105 0 -3 -42 -48 -92 -100 -51 -52 -92 -99 -90 -105 1
-5 -2 -7 -8 -3 -6 3 -7 0 -4 -9 7 -18 15 -20 30 -8 5 4 -4 -6 -21 -23 -17 -16
-48 -43 -69 -60 -70 -54 -82 -67 -31 -34 108 71 371 298 511 441 82 83 196
235 239 318 21 40 11 75 -31 106 -107 82 -306 86 -749 15 -71 -12 -175 -28
-230 -37 -113 -18 -345 -68 -393 -85 -17 -6 -36 -9 -43 -7 -9 3 153 56 386
125 201 60 581 131 820 152 128 12 381 4 510 -15z m-3167 -62 c1 31 6 60 12
63 6 3 7 -17 4 -54 l-4 -60 97 -4 98 -3 -107 -2 -108 -2 2 -37 c1 -35 2 -35 5
-7 l4 31 94 2 c60 1 96 -2 100 -9 5 -8 -16 -11 -72 -10 -112 2 -112 2 -109
-17 2 -10 8 -18 14 -17 7 1 27 2 45 4 l32 3 -35 7 c-27 6 -18 8 43 9 42 0 77
-1 77 -3 0 -2 3 -11 6 -20 5 -14 -7 -16 -99 -16 -92 0 -106 -2 -110 -17 -3
-10 -4 41 -4 112 0 108 2 118 7 60 l6 -70 2 57z m2229 72 c-3 -3 -12 -4 -19
-1 -8 3 -5 6 6 6 11 1 17 -2 13 -5z m-2137 -24 c0 -5 -2 -10 -4 -10 -3 0 -8 5
-11 10 -3 6 -1 10 4 10 6 0 11 -4 11 -10z m70 0 c0 -5 -2 -10 -4 -10 -3 0 -8
5 -11 10 -3 6 -1 10 4 10 6 0 11 -4 11 -10z m1917 -6 c-3 -3 -12 -4 -19 -1 -8
3 -5 6 6 6 11 1 17 -2 13 -5z m-1100 -36 c-3 -7 -5 -2 -5 12 0 14 2 19 5 13 2
-7 2 -19 0 -25z m776 12 c-3 -11 -9 -20 -14 -20 -11 0 -11 3 -3 24 9 23 23 20
17 -4z m284 14 c-3 -3 -12 -4 -19 -1 -8 3 -5 6 6 6 11 1 17 -2 13 -5z m1537
-3 c4 -5 -3 -7 -14 -4 -23 6 -26 13 -6 13 8 0 17 -4 20 -9z m351 -1 c3 -5 1
-10 -4 -10 -6 0 -11 5 -11 10 0 6 2 10 4 10 3 0 8 -4 11 -10z m-3841 -6 c25
-10 6 -34 -28 -34 -24 0 -27 3 -16 10 13 9 13 10 0 11 -13 0 -9 3 27 18 1 1 8
-2 17 -5z m92 -12 c-5 -8 -66 -4 -66 4 0 2 16 4 36 4 19 0 33 -4 30 -8z m1539
-12 c-3 -5 -15 -10 -26 -10 -11 0 -17 5 -14 10 3 6 15 10 26 10 11 0 17 -4 14
-10z m-249 -8 c-7 -12 -126 -14 -126 -2 0 6 27 10 66 10 36 0 63 -4 60 -8z
m409 -2 c-11 -5 -27 -9 -35 -9 -9 0 -8 4 5 9 11 5 27 9 35 9 9 0 8 -4 -5 -9z
m-1693 -19 c-14 -9 -140 -6 -149 3 -4 3 32 6 78 6 49 0 78 -4 71 -9z m1633 4
c-34 -13 -87 -23 -79 -16 5 5 18 11 29 14 23 6 65 7 50 2z m-445 -39 c0 -8 -4
-18 -10 -21 -5 -3 -10 3 -10 14 0 12 5 21 10 21 6 0 10 -6 10 -14z m347 8 c-3
-3 -12 -4 -19 -1 -8 3 -5 6 6 6 11 1 17 -2 13 -5z m-37 -8 c0 -2 -9 -6 -20 -9
-11 -3 -18 -1 -14 4 5 9 34 13 34 5z m-153 -52 c-3 -3 -12 -4 -19 -1 -8 3 -5
6 6 6 11 1 17 -2 13 -5z m-129 -35 c10 0 -1 -7 -22 -15 -22 -8 -41 -12 -43
-10 -3 2 5 7 16 11 12 3 21 14 22 23 0 11 3 12 6 5 2 -7 12 -13 21 -14z m52
11 c-8 -5 -19 -10 -25 -10 -5 0 -3 5 5 10 8 5 20 10 25 10 6 0 3 -5 -5 -10z
m-1332 -65 c0 -23 -2 -24 -14 -8 -13 17 -13 17 -14 -3 0 -18 -6 -20 -40 -19
-22 1 -40 -2 -40 -7 0 -4 14 -8 30 -8 51 0 33 -15 -20 -17 -47 -1 -50 1 -50
24 0 14 -4 22 -10 18 -6 -4 -8 -15 -5 -25 5 -16 0 -18 -52 -15 -95 4 -93 4
-86 21 4 12 8 13 14 3 6 -10 14 -7 33 14 24 26 27 26 105 20 71 -5 81 -4 81
11 0 12 9 16 34 16 29 0 34 -3 34 -25z m80 8 c2 -7 -3 -13 -11 -13 -9 0 -17
-5 -19 -11 -3 -9 -9 -9 -26 0 -31 17 -18 43 21 39 17 -2 32 -9 35 -15z m-91
-59 c-3 -3 -12 -4 -19 -1 -8 3 -5 6 6 6 11 1 17 -2 13 -5z m71 -1 c-10 -2 -28
-2 -40 0 -13 2 -5 4 17 4 22 1 32 -1 23 -4z m2495 -56 c-34 -53 -67 -97 -74
-97 -5 0 10 25 33 55 37 49 62 75 41 42z m-101 -134 c-11 -16 -30 -37 -43 -48
-13 -11 -6 1 15 28 42 51 59 64 28 20z m-82 -96 c0 -2 -12 -14 -27 -28 l-28
-24 24 28 c23 25 31 32 31 24z m-3990 -129 c161 -291 344 -608 349 -608 3 0
35 105 70 233 34 127 79 289 98 360 l36 127 304 0 c285 0 304 -1 299 -17 -20
-69 -68 -251 -155 -583 -55 -212 -118 -457 -141 -545 -23 -88 -55 -214 -72
-280 -16 -66 -31 -121 -32 -122 -3 -4 -499 -43 -541 -43 l-41 0 -59 98 c-33
53 -150 245 -262 425 l-202 328 -20 -68 c-26 -90 -65 -241 -147 -563 -37 -146
-68 -266 -69 -268 -1 -1 -78 -11 -171 -23 -93 -11 -241 -29 -328 -39 -88 -11
-161 -18 -164 -15 -3 2 30 132 72 287 69 252 390 1384 401 1416 3 9 84 12 358
12 l355 0 62 -112z m2654 0 c-17 -62 -40 -150 -50 -195 l-19 -83 -390 0 -391
0 -22 -87 c-12 -49 -22 -91 -22 -95 0 -5 151 -8 336 -8 265 0 335 -3 332 -12
-3 -7 -25 -88 -49 -180 l-44 -168 -335 0 -336 0 -26 -105 -26 -106 338 3 337
3 -41 -24 c-87 -49 -504 -255 -582 -286 -75 -30 -97 -34 -251 -44 -316 -21
-497 -30 -501 -26 -8 8 17 104 243 954 80 300 145 551 145 558 0 11 126 13
693 13 l694 0 -33 -112z m909 -10 c65 -100 76 -123 65 -135 -32 -38 -487 -383
-506 -383 -4 0 -37 46 -73 103 -36 56 -130 200 -207 320 l-141 217 392 0 392
-1 78 -121z m2895 -45 c-26 -93 -53 -185 -58 -205 l-11 -38 -299 0 -298 0 -11
-32 c-11 -35 -28 -99 -175 -653 -52 -198 -103 -390 -112 -427 -15 -62 -19 -68
-43 -68 -51 0 -527 32 -572 38 l-46 7 64 230 c149 540 243 886 243 895 0 6
-108 10 -285 10 l-285 0 6 28 c21 84 33 95 219 220 100 66 189 130 199 141 19
21 24 21 766 21 l747 0 -49 -167z m-2486 -610 c30 -49 77 -124 105 -168 28
-44 110 -177 183 -295 72 -118 141 -228 152 -243 11 -16 18 -30 16 -31 -6 -5
-694 25 -736 32 l-42 7 -155 240 c-85 131 -153 240 -152 241 1 0 85 45 187 99
102 54 228 123 280 152 52 29 98 53 101 53 4 0 31 -39 61 -87z m902 -107 c-9
-37 -19 -65 -22 -62 -2 3 4 35 13 71 23 85 31 78 9 -9z m-2066 -418 c-78 -62
-156 -125 -173 -140 l-30 -28 -152 0 c-84 0 -153 2 -153 5 0 2 19 9 43 16 23
6 65 22 92 36 28 14 118 53 200 88 83 35 184 79 225 99 41 19 79 35 83 35 5 1
-56 -50 -135 -111z m3199 -450 c-3 -7 -5 -2 -5 12 0 14 2 19 5 13 2 -7 2 -19
0 -25z m-1789 -15 c-27 -2 -69 -2 -95 0 -27 2 -5 3 47 3 52 0 74 -1 48 -3z
m170 -10 c-21 -2 -57 -2 -80 0 -24 2 -7 4 37 4 44 0 63 -2 43 -4z m-2146 -118
c66 -31 112 -78 141 -144 28 -64 20 -180 -19 -259 -37 -76 -142 -181 -217
-216 -129 -60 -319 -72 -437 -27 -91 34 -156 115 -167 209 -6 53 15 150 47
211 34 67 124 155 199 195 105 55 159 67 286 62 95 -3 118 -7 167 -31z m778
14 c0 -11 -80 -346 -103 -434 -20 -72 -40 -106 -88 -149 -88 -80 -213 -116
-332 -97 -69 11 -177 52 -177 67 0 4 18 26 40 50 22 24 46 55 52 69 14 30 14
30 63 5 23 -12 59 -20 87 -20 41 0 54 5 83 33 37 34 41 47 120 410 l16 77 120
0 c77 0 119 -4 119 -11z m518 1 l185 0 -6 -42 c-4 -24 -12 -60 -18 -82 l-11
-38 -166 3 -166 4 -11 -46 -12 -46 148 -5 c82 -3 151 -7 153 -9 2 -2 -3 -37
-12 -76 l-17 -73 -161 0 -161 0 -6 -37 c-4 -20 -5 -38 -4 -39 1 -1 78 -6 170
-10 164 -7 168 -7 163 -28 -3 -12 -10 -50 -17 -86 l-12 -65 -286 3 c-157 2
-289 6 -293 10 -4 4 27 157 70 341 l77 334 104 -7 c57 -3 187 -6 289 -6z m827
-39 c39 -12 78 -28 88 -36 22 -16 17 -29 -45 -113 -37 -50 -40 -51 -61 -37
-12 8 -51 21 -85 30 -97 25 -183 2 -249 -67 -86 -90 -82 -197 10 -244 46 -24
166 -22 247 4 35 12 65 20 66 19 8 -7 -53 -198 -65 -202 -7 -3 -55 -11 -106
-17 -258 -33 -465 82 -465 257 0 43 26 138 51 188 103 200 371 296 614 218z
m-2983 9 c140 -39 170 -194 60 -312 -26 -28 -63 -58 -84 -69 l-37 -19 35 -78
c19 -42 46 -96 60 -119 13 -23 24 -46 24 -51 0 -5 -42 -11 -92 -12 -51 -1
-109 -3 -128 -4 -35 -1 -35 -1 -90 111 -49 101 -58 113 -81 113 -25 0 -27 -4
-51 -117 l-24 -118 -40 -6 c-21 -4 -78 -9 -125 -13 l-87 -7 43 209 c43 202 91
419 101 454 6 21 31 26 189 37 175 12 285 12 327 1z m3563 -41 c165 -12 302
-23 303 -25 2 -1 -1 -18 -6 -36 -6 -18 -16 -52 -22 -76 l-11 -44 -116 4 -116
3 -63 -225 c-35 -124 -64 -233 -64 -242 0 -15 -10 -18 -62 -18 -35 0 -93 3
-129 6 l-66 7 34 121 c82 300 99 371 89 373 -6 1 -59 5 -118 8 l-106 7 8 26
c5 15 16 53 25 85 l16 57 52 -5 c29 -2 187 -14 352 -26z m-4298 -19 c102 -46
117 -182 34 -298 -63 -86 -209 -154 -364 -168 l-75 -7 -7 -36 c-3 -20 -13 -66
-21 -102 l-15 -66 -52 -2 c-29 -1 -81 -6 -116 -12 -35 -5 -66 -8 -68 -5 -6 6
1 44 72 391 31 154 61 284 65 288 10 11 276 34 405 36 79 0 109 -4 142 -19z
m-1826 -499 c20 -13 27 -21 17 -21 -9 0 -38 17 -65 39 -81 65 -303 285 -303
300 0 8 71 -56 159 -142 87 -85 173 -165 192 -176z m-410 232 c13 -16 12 -17
-3 -4 -10 7 -18 15 -18 17 0 8 8 3 21 -13z m2295 -909 c40 -19 79 -32 85 -28
7 4 9 3 6 -3 -4 -6 0 -14 9 -17 10 -4 13 -2 8 6 -5 8 -1 9 12 4 10 -4 31 -10
47 -13 15 -3 27 -9 27 -13 0 -3 6 -7 13 -7 6 0 21 -4 31 -9 12 -4 17 -4 13 3
-3 5 3 9 14 8 11 -1 25 -8 30 -16 7 -11 9 -11 9 -1 0 7 5 10 10 7 6 -3 10 -4
10 -1 0 3 -48 30 -107 60 -60 30 -104 55 -99 55 11 1 161 -72 861 -422 800
-399 970 -478 999 -467 40 15 1187 578 1508 741 l298 150 110 -2 111 -2 -43
-25 c-95 -54 -1072 -544 -1521 -762 l-477 -233 -73 33 c-126 57 -1977 979
-1977 984 0 10 10 7 86 -30z m22 29 c-10 -2 -28 -2 -40 0 -13 2 -5 4 17 4 22
1 32 -1 23 -4z m-315 -40 c-7 -2 -19 -2 -25 0 -7 3 -2 5 12 5 14 0 19 -2 13
-5z m4532 -13 c13 -5 14 -9 5 -9 -8 0 -24 4 -35 9 -13 5 -14 9 -5 9 8 0 24 -4
35 -9z m-2274 -280 c16 9 19 7 19 -8 0 -23 23 -45 35 -34 4 4 5 -4 2 -18 -6
-24 -5 -24 8 -6 14 19 15 19 15 -5 0 -13 9 -32 20 -42 11 -9 23 -31 27 -47 3
-18 12 -30 21 -30 13 0 13 -2 -1 -17 -17 -20 -49 -104 -42 -112 5 -5 -55 -44
-70 -46 -5 -1 -22 -5 -36 -9 -35 -10 -80 13 -115 60 -34 43 -47 140 -22 158 8
6 18 22 22 34 5 16 13 22 24 17 19 -7 32 11 32 50 0 21 3 26 9 16 7 -11 11
-10 19 5 5 11 8 25 6 32 -1 7 0 8 3 2 3 -7 11 -7 24 0z m-221 -114 c0 -3 -4
-8 -10 -11 -5 -3 -10 -1 -10 4 0 6 5 11 10 11 6 0 10 -2 10 -4z m295 -656 c-3
-5 -12 -10 -18 -10 -7 0 -6 4 3 10 19 12 23 12 15 0z"/>
<path d="M2530 7520 c0 -5 7 -10 15 -10 8 0 15 5 15 10 0 6 -7 10 -15 10 -8 0
-15 -4 -15 -10z"/>
<path d="M3465 7380 c-3 -5 -2 -10 4 -10 5 0 13 5 16 10 3 6 2 10 -4 10 -5 0
-13 -4 -16 -10z"/>
<path d="M7321 7044 c0 -11 3 -14 6 -6 3 7 2 16 -1 19 -3 4 -6 -2 -5 -13z"/>
<path d="M4402 6890 c0 -14 2 -19 5 -12 2 6 2 18 0 25 -3 6 -5 1 -5 -13z"/>
<path d="M4402 6840 c0 -14 2 -19 5 -12 2 6 2 18 0 25 -3 6 -5 1 -5 -13z"/>
<path d="M3410 6766 c0 -2 7 -7 16 -10 8 -3 12 -2 9 4 -6 10 -25 14 -25 6z"/>
<path d="M2650 6749 l-25 -7 28 -1 c16 -1 26 -5 22 -11 -3 -5 -2 -10 3 -10 15
0 22 28 9 32 -7 3 -23 1 -37 -3z"/>
<path d="M2710 6741 c0 -25 6 -27 13 -6 4 8 2 17 -3 20 -6 4 -10 -3 -10 -14z"/>
<path d="M2768 6753 c7 -3 16 -2 19 1 4 3 -2 6 -13 5 -11 0 -14 -3 -6 -6z"/>
<path d="M5330 7190 c0 -5 7 -10 15 -10 8 0 15 5 15 10 0 6 -7 10 -15 10 -8 0
-15 -4 -15 -10z"/>
<path d="M5325 7149 c-7 -10 4 -14 40 -14 17 0 32 5 35 10 6 12 -68 16 -75 4z"/>
<path d="M5335 7110 c3 -5 8 -10 11 -10 2 0 4 5 4 10 0 6 -5 10 -11 10 -5 0
-7 -4 -4 -10z"/>
<path d="M5385 7110 c-3 -5 -1 -10 4 -10 6 0 11 5 11 10 0 6 -2 10 -4 10 -3 0
-8 -4 -11 -10z"/>
<path d="M5385 7080 c-3 -5 -1 -10 4 -10 6 0 11 5 11 10 0 6 -2 10 -4 10 -3 0
-8 -4 -11 -10z"/>
<path d="M5360 7046 c0 -2 9 -6 20 -9 11 -3 20 -1 20 4 0 5 -9 9 -20 9 -11 0
-20 -2 -20 -4z"/>
<path d="M5330 7029 c0 -5 5 -7 10 -4 6 3 10 8 10 11 0 2 -4 4 -10 4 -5 0 -10
-5 -10 -11z"/>
<path d="M2876 7155 c4 -8 10 -15 15 -15 4 0 6 7 3 15 -4 8 -10 15 -15 15 -4
0 -6 -7 -3 -15z"/>
<path d="M3010 6839 c0 -5 5 -7 10 -4 6 3 10 8 10 11 0 2 -4 4 -10 4 -5 0 -10
-5 -10 -11z"/>
<path d="M3075 6840 c3 -5 8 -10 11 -10 2 0 4 5 4 10 0 6 -5 10 -11 10 -5 0
-7 -4 -4 -10z"/>
<path d="M3135 6830 c3 -5 11 -10 16 -10 6 0 7 5 4 10 -3 6 -11 10 -16 10 -6
0 -7 -4 -4 -10z"/>
<path d="M3080 6787 c0 -20 4 -37 10 -37 5 0 8 14 6 30 -5 45 -16 49 -16 7z"/>
<path d="M3251 6804 c0 -11 3 -14 6 -6 3 7 2 16 -1 19 -3 4 -6 -2 -5 -13z"/>
<path d="M3261 6684 c0 -11 3 -14 6 -6 3 7 2 16 -1 19 -3 4 -6 -2 -5 -13z"/>
<path d="M3150 6680 c0 -5 7 -10 16 -10 8 0 12 5 9 10 -3 6 -10 10 -16 10 -5
0 -9 -4 -9 -10z"/>
<path d="M6514 6208 l-29 -33 33 29 c30 28 37 36 29 36 -2 0 -16 -15 -33 -32z"/>
<path d="M6429 6133 c-13 -16 -12 -17 4 -4 9 7 17 15 17 17 0 8 -8 3 -21 -13z"/>
<path d="M6379 6093 c-13 -16 -12 -17 4 -4 9 7 17 15 17 17 0 8 -8 3 -21 -13z"/>
<path d="M6119 5893 c-13 -16 -12 -17 4 -4 9 7 17 15 17 17 0 8 -8 3 -21 -13z"/>
<path d="M5969 5883 c-13 -17 -13 -17 6 -3 11 8 22 16 24 17 2 2 0 3 -6 3 -6
0 -17 -8 -24 -17z"/>
<path d="M6069 5859 l-24 -20 28 17 c15 9 27 18 27 20 0 8 -8 4 -31 -17z"/>
<path d="M5723 5720 c-18 -11 -33 -22 -33 -25 0 -2 16 5 35 16 19 12 35 23 35
25 0 6 -3 5 -37 -16z"/>
<path d="M5734 5644 c-18 -14 -18 -15 4 -4 12 6 22 13 22 15 0 8 -5 6 -26 -11z"/>
<path d="M5591 5555 c-66 -42 -80 -56 -26 -26 40 22 94 61 85 61 -3 0 -29 -16
-59 -35z"/>
<path d="M5396 5440 c-144 -84 -164 -101 -41 -35 90 48 165 94 165 101 0 6 3
7 -124 -66z"/>
<path d="M5200 5330 c-19 -11 -31 -19 -27 -20 11 0 67 29 67 35 0 7 -1 7 -40
-15z"/>
<path d="M4025 6710 c3 -5 8 -10 11 -10 2 0 4 5 4 10 0 6 -5 10 -11 10 -5 0
-7 -4 -4 -10z"/>
<path d="M3881 6684 c0 -11 3 -14 6 -6 3 7 2 16 -1 19 -3 4 -6 -2 -5 -13z"/>
<path d="M1961 5314 c0 -11 3 -14 6 -6 3 7 2 16 -1 19 -3 4 -6 -2 -5 -13z"/>
<path d="M1401 5114 c-29 -102 -51 -187 -49 -190 5 -5 20 41 74 240 19 70 34
130 31 132 -2 2 -27 -80 -56 -182z"/>
<path d="M1922 5178 c-32 -117 -49 -197 -39 -188 8 7 79 292 74 296 -2 2 -18
-47 -35 -108z"/>
<path d="M2410 5250 c6 -11 13 -20 16 -20 2 0 0 9 -6 20 -6 11 -13 20 -16 20
-2 0 0 -9 6 -20z"/>
<path d="M3247 5203 c-20 -75 -31 -129 -24 -123 8 7 49 172 44 176 -2 3 -11
-21 -20 -53z"/>
<path d="M2440 5200 c6 -11 13 -20 16 -20 2 0 0 9 -6 20 -6 11 -13 20 -16 20
-2 0 0 -9 6 -20z"/>
<path d="M2481 5135 c12 -22 26 -44 32 -50 15 -16 -20 48 -38 70 -9 11 -7 2 6
-20z"/>
<path d="M1871 4964 c0 -11 3 -14 6 -6 3 7 2 16 -1 19 -3 4 -6 -2 -5 -13z"/>
<path d="M1341 4894 c0 -11 3 -14 6 -6 3 7 2 16 -1 19 -3 4 -6 -2 -5 -13z"/>
<path d="M3541 5284 c0 -11 3 -14 6 -6 3 7 2 16 -1 19 -3 4 -6 -2 -5 -13z"/>
<path d="M3523 5214 c-6 -27 -10 -51 -8 -52 6 -6 27 78 23 90 -2 6 -9 -11 -15
-38z"/>
<path d="M3501 5134 c0 -11 3 -14 6 -6 3 7 2 16 -1 19 -3 4 -6 -2 -5 -13z"/>
<path d="M7981 5204 c0 -11 3 -14 6 -6 3 7 2 16 -1 19 -3 4 -6 -2 -5 -13z"/>
<path d="M7452 5171 c-7 -21 -12 -45 -11 -52 0 -8 7 8 15 35 9 26 13 50 11 52
-2 2 -9 -13 -15 -35z"/>
<path d="M7956 5114 c-9 -37 -15 -68 -13 -71 3 -2 12 26 21 63 9 37 15 68 13
71 -3 2 -12 -26 -21 -63z"/>
<path d="M5860 5371 c0 -5 7 -15 17 -22 15 -13 15 -12 4 9 -12 23 -21 28 -21
13z"/>
<path d="M5925 5274 c10 -17 26 -41 37 -55 l20 -24 -17 31 c-10 17 -26 41 -37
55 l-20 24 17 -31z"/>
<path d="M6567 5240 c15 -28 36 -60 47 -73 l18 -22 -14 25 c-8 14 -27 46 -42
73 -15 26 -30 47 -33 47 -2 0 8 -23 24 -50z"/>
<path d="M6005 5153 c15 -24 30 -43 32 -43 7 0 -31 61 -46 73 -8 7 -2 -7 14
-30z"/>
<path d="M5084 4978 l-19 -23 23 19 c12 11 22 21 22 23 0 8 -8 2 -26 -19z"/>
<path d="M4948 4943 c12 -2 30 -2 40 0 9 3 -1 5 -23 4 -22 0 -30 -2 -17 -4z"/>
<path d="M5018 4943 c6 -2 18 -2 25 0 6 3 1 5 -13 5 -14 0 -19 -2 -12 -5z"/>
<path d="M4394 4301 c-90 -41 -159 -171 -135 -253 7 -21 23 -45 36 -54 35 -23
98 -29 150 -14 149 42 235 268 124 326 -39 20 -126 17 -175 -5z"/>
<path d="M3545 4288 c-9 -28 -35 -122 -35 -127 0 -13 147 5 172 21 35 23 46
73 22 99 -14 15 -31 19 -86 19 -46 0 -70 -4 -73 -12z"/>
<path d="M3770 3975 c0 -5 5 -17 10 -25 5 -8 10 -10 10 -5 0 6 -5 17 -10 25
-5 8 -10 11 -10 5z"/>
<path d="M2788 4244 c-10 -3 -20 -15 -23 -27 -2 -12 -11 -51 -19 -86 l-14 -63
61 7 c93 10 141 42 153 101 9 48 -14 67 -82 70 -33 2 -67 0 -76 -2z"/>
<path d="M6877 3198 c-43 -22 -75 -43 -73 -46 3 -2 16 2 29 11 33 21 99 48 92
37 -3 -4 8 -15 23 -23 27 -13 33 -12 92 17 38 18 57 32 47 34 -9 2 -24 -4 -33
-12 -18 -19 -30 -20 -40 -5 -3 6 -17 9 -30 6 -14 -2 -27 0 -31 6 -4 7 11 8 46
4 32 -4 49 -2 46 3 -15 24 -91 9 -168 -32z"/>
<path d="M9367 6078 l-205 -463 -271 2 -271 2 0 -67 c0 -240 52 -1038 70
-1072 5 -8 42 -21 83 -30 l75 -16 -8 22 c-16 42 -60 284 -80 440 -19 151 -26
254 -9 144 45 -297 54 -344 60 -315 4 17 7 22 8 13 0 -9 10 -20 21 -23 11 -3
21 -14 21 -23 1 -9 5 -3 9 13 l8 30 2 -30 c1 -16 4 -25 7 -18 2 7 -5 72 -16
145 -18 115 -29 215 -57 504 l-5 62 123 5 c108 4 239 29 226 43 -3 2 -28 -3
-57 -12 -29 -8 -56 -13 -59 -9 -3 3 4 8 16 12 12 3 22 10 22 17 0 17 45 66 61
66 16 0 59 62 59 84 0 17 17 31 50 41 13 4 30 14 38 21 7 8 22 14 32 14 10 0
21 6 24 13 7 14 1 -19 -8 -48 -18 -55 47 90 169 375 115 270 155 374 155 408
0 37 -54 111 -81 112 -4 0 -99 -208 -212 -462z m-500 -1330 c-3 -8 -6 -5 -6 6
-1 11 2 17 5 13 3 -3 4 -12 1 -19z"/>
<path d="M2728 6164 c-3 -5 -1 -20 5 -34 8 -20 11 -22 14 -8 5 20 -12 55 -19
42z"/>
<path d="M8590 5610 c0 -5 -11 -10 -25 -10 -22 0 -25 -4 -24 -37 2 -31 3 -33
6 -10 2 15 9 25 14 21 5 -3 6 -10 3 -16 -4 -7 -2 -8 4 -4 7 4 13 15 13 24 1 9
5 4 9 -13 7 -28 8 -27 9 13 0 23 -1 42 -4 42 -3 0 -5 -4 -5 -10z"/>
<path d="M9259 5513 l-24 -28 28 24 c15 14 27 26 27 28 0 8 -8 1 -31 -24z"/>
<path d="M9204 5474 c-18 -14 -18 -15 4 -4 12 6 22 13 22 15 0 8 -5 6 -26 -11z"/>
<path d="M8892 4650 c0 -14 2 -19 5 -12 2 6 2 18 0 25 -3 6 -5 1 -5 -13z"/>
<path d="M8902 4600 c0 -14 2 -19 5 -12 2 6 2 18 0 25 -3 6 -5 1 -5 -13z"/>
<path d="M8911 4554 c0 -11 3 -14 6 -6 3 7 2 16 -1 19 -3 4 -6 -2 -5 -13z"/>
<path d="M2050 4545 c0 -8 5 -15 10 -15 6 0 10 7 10 15 0 8 -4 15 -10 15 -5 0
-10 -7 -10 -15z"/>
<path d="M7918 4553 c7 -3 16 -2 19 1 4 3 -2 6 -13 5 -11 0 -14 -3 -6 -6z"/>
<path d="M2088 4543 c7 -3 16 -2 19 1 4 3 -2 6 -13 5 -11 0 -14 -3 -6 -6z"/>
<path d="M2328 4543 c7 -3 16 -2 19 1 4 3 -2 6 -13 5 -11 0 -14 -3 -6 -6z"/>
<path d="M2219 4536 c-2 -3 -58 -9 -124 -16 -66 -6 -124 -15 -129 -20 -7 -7
-5 -10 3 -10 9 0 8 -4 -3 -15 -8 -8 -20 -15 -27 -15 -7 0 -10 -2 -7 -5 6 -6
268 22 275 29 2 2 -8 7 -23 10 -37 10 -23 19 49 32 50 9 55 12 26 13 -20 0
-38 -1 -40 -3z"/>
<path d="M8921 4514 c0 -11 3 -14 6 -6 3 7 2 16 -1 19 -3 4 -6 -2 -5 -13z"/>
<path d="M7888 4513 c6 -2 18 -2 25 0 6 3 1 5 -13 5 -14 0 -19 -2 -12 -5z"/>
<path d="M8466 3173 c-6 -14 -5 -15 5 -6 7 7 10 15 7 18 -3 3 -9 -2 -12 -12z"/>
<path d="M1775 3140 c10 -11 20 -20 23 -20 3 0 -3 9 -13 20 -10 11 -20 20 -23
20 -3 0 3 -9 13 -20z"/>
<path d="M3264 3006 c11 -9 24 -16 30 -16 12 0 7 5 -24 19 -24 11 -24 11 -6
-3z"/>
<path d="M6870 2950 c-9 -6 -10 -10 -3 -10 6 0 15 5 18 10 8 12 4 12 -15 0z"/>
<path d="M6404 2387 c-154 -78 -341 -171 -415 -206 -74 -36 -137 -67 -141 -69
-5 -2 -8 -1 -8 2 0 3 29 20 65 38 49 24 62 34 50 41 -8 4 -15 17 -15 27 0 11
-4 20 -10 20 -5 0 -10 9 -10 21 0 27 -24 51 -44 43 -9 -3 -16 -3 -16 0 0 4 70
41 155 83 86 42 154 77 152 79 -2 2 -46 -16 -98 -41 -52 -25 -283 -137 -514
-248 l-420 -203 -3 -108 -3 -108 -25 5 c-17 3 -22 1 -16 -5 6 -6 21 -10 34
-10 22 0 1578 767 1578 777 0 11 -25 -1 -296 -138z"/>
<path d="M5017 2009 c7 -7 15 -10 18 -7 3 3 -2 9 -12 12 -14 6 -15 5 -6 -5z"/>
</g>
</svg>
